:SAMPLES-PER-SECOND 30
:FULLY-SPECIFIED
:DEGREES
525
root  -3.11848 41.0426 -0.98882 -2.83649 -84.2867 5.31842
RightUpLeg  2.40556 -1.52283 -0.00437345
RightLeg  -6.73382 -28.2175 4.86402
RightFoot  1.12735 -0.059183 0.559204
RightToes  -3.10678e-008 1.75238e-005 3.56266e-009
Spine  10.7041 -1.00873 -6.17281
Spine1  -14.0081 -1.70059 7.01666
HEad  3.08373 9.26622 4.17777
LeftShoulder1  0.043332 3.30074 -14.421
LeftArm  -48.3623 -15.6273 -22.3197
LeftForeArm  155.667 -72.1751 -147.869
LeftHand  -0.940728 -5.21838 10.562
RightShoulder  0.8646 -0.0331094 18.4988
RightArm  6.1148 -23.2651 55.8529
RightForeArm  39.8331 70.5346 28.5883
RightHand  -0.292965 8.25224 -2.86533
LeftUpLeg  0.925148 0.634722 2.82239
LeftLeg  -6.36614 13.4307 -1.76477
LeftFoot  3.52023 0.557376 -4.43679
LeftToes  4.7643e-008 1.47522e-008 1.32869e-009
526
root  -3.09414 41.0435 -0.972444 -1.93677 -84.4753 4.19012
RightUpLeg  2.68293 -1.4177 0.122151
RightLeg  -6.92877 -28.1456 4.89417
RightFoot  1.27057 -0.0613665 0.586913
RightToes  -3.10678e-008 1.75238e-005 3.56266e-009
Spine  10.5615 -1.07357 -6.5343
Spine1  -13.7776 -1.8176 7.47655
HEad  3.74106 7.95621 4.37602
LeftShoulder1  0.0969825 3.04662 -14.2172
LeftArm  -44.8397 -17.7709 -23.8228
LeftForeArm  146.773 -75.6557 -138.202
LeftHand  -0.786378 -4.89451 9.17361
RightShoulder  0.922658 0.151364 18.8571
RightArm  6.43379 -22.6298 54.7702
RightForeArm  40.9657 71.4666 30.4101
RightHand  -0.251711 8.18706 -2.52555
LeftUpLeg  1.02698 0.802788 2.95244
LeftLeg  -6.0922 13.4786 -1.75365
LeftFoot  3.40058 0.537241 -4.31231
LeftToes  4.7643e-008 1.47522e-008 1.32869e-009
527
root  -3.07313 41.0456 -0.944308 -1.62952 -84.4814 3.65186
RightUpLeg  2.90744 -1.47663 0.105922
RightLeg  -6.93266 -28.0858 4.92889
RightFoot  1.29256 -0.0619779 0.589274
RightToes  -3.10678e-008 1.75238e-005 3.56266e-009
Spine  10.122 -1.22023 -7.58704
Spine1  -13.091 -2.12449 8.8518
HEad  4.73633 6.29781 3.91724
LeftShoulder1  0.200606 2.58197 -14.8179
LeftArm  -41.1737 -21.0439 -26.4616
LeftForeArm  132.71 -78.8704 -121.174
LeftHand  -0.807476 -4.70598 9.56971
RightShoulder  0.927079 0.202504 18.5983
RightArm  6.56703 -21.291 53.9972
RightForeArm  42.8423 72.3953 32.3164
RightHand  -0.276341 8.12419 -2.74237
LeftUpLeg  1.17641 0.916994 3.00883
LeftLeg  -5.9238 13.3168 -1.77034
LeftFoot  3.32517 0.538027 -4.33718
LeftToes  4.7643e-008 1.47522e-008 1.32869e-009
528
root  -3.03163 41.0469 -0.893771 -0.640442 -84.4049 2.41559
RightUpLeg  3.08792 -1.52788 0.116537
RightLeg  -6.8791 -28.129 4.9553
RightFoot  1.3568 -0.0593357 0.54036
RightToes  -3.10678e-008 1.75238e-005 3.56266e-009
Spine  9.84099 -1.68316 -8.25133
Spine1  -12.472 -2.70653 9.726
HEad  5.68939 5.04403 3.59776
LeftShoulder1  0.331825 2.00312 -15.2965
LeftArm  -37.3519 -24.2263 -29.124
LeftForeArm  104.232 -80.5875 -88.9197
LeftHand  -0.798885 -5.1431 9.09801
RightShoulder  0.870145 0.0199158 18.2643
RightArm  6.50461 -18.9536 53.5107
RightForeArm  44.1209 73.2891 34.6321
RightHand  -0.32193 8.34094 -3.09795
LeftUpLeg  1.27248 1.05438 3.0864
LeftLeg  -5.71313 13.0962 -1.77482
LeftFoot  3.20669 0.529827 -4.30275
LeftToes  4.7643e-008 1.47522e-008 1.32869e-009
529
root  -2.98269 41.0448 -0.835279 0.733398 -84.2493 0.729614
RightUpLeg  3.34288 -1.60826 0.132395
RightLeg  -6.82895 -28.2279 5.04574
RightFoot  1.36988 -0.062528 0.581402
RightToes  -3.10678e-008 1.75238e-005 3.56266e-009
Spine  10.0426 -2.43607 -8.43739
Spine1  -12.5242 -3.47683 9.7906
HEad  6.87929 3.3196 4.15472
LeftShoulder1  0.443675 1.48706 -15.1077
LeftArm  -32.9845 -26.8557 -31.5604
LeftForeArm  68.2402 -78.1888 -52.0998
LeftHand  -0.793087 -4.68385 9.42139
RightShoulder  0.891527 0.0755895 18.4971
RightArm  5.79233 -16.6057 52.5312
RightForeArm  48.249 74.9932 39.7654
RightHand  -0.232845 8.55184 -2.31817
LeftUpLeg  1.30025 1.17962 3.18523
LeftLeg  -5.25093 12.7559 -1.66425
LeftFoot  3.00347 0.507996 -4.18152
LeftToes  4.7643e-008 1.47522e-008 1.32869e-009
